<svg width="19" height="18" viewBox="0 0 19 18" fill="none" xmlns="http://www.w3.org/2000/svg">
<g clip-path="url(#clip0_1_154)">
<path d="M18.8508 8.46034L18.9995 8.61267V8.14978C18.9995 7.12926 18.3428 6.29875 17.536 6.29875H16.2463C15.3441 2.20324 12.2692 0.000204796 7.69576 0.000204796C4.78298 0.000204796 4.40944 0.000204796 1.65131 0.000204796C1.65131 0.000204796 2.47944 0.758054 2.47944 3.14517V6.3009H0.954126C0.65766 6.3009 0.379476 6.17657 0.149221 5.94028L0 5.78796V6.25085C0 7.27136 0.656672 8.10187 1.46355 8.10187H2.47944V9.90177H0.954126C0.658154 9.90177 0.379476 9.77743 0.149221 9.54114L0 9.38882V9.85171C0 10.8717 0.656672 11.7017 1.46355 11.7017H2.47944V14.9957C2.47944 17.3156 1.65131 18.0002 1.65131 18.0002H7.69576C12.4135 18.0002 15.3895 15.7821 16.2572 11.699H18.0459C18.3423 11.699 18.6205 11.8233 18.8513 12.0596L19 12.2119V11.749C19 10.729 18.3433 9.89907 17.5364 9.89907H16.4954C16.5131 9.60627 16.5225 9.30647 16.5225 8.99913C16.5225 8.69179 16.5126 8.39199 16.4944 8.09918H18.0464C18.3423 8.09918 18.621 8.22352 18.8518 8.45981M4.95592 0.901227H7.4828C10.8828 0.901227 12.8513 2.5418 13.4393 6.29929L4.95641 6.30037L4.95592 0.901227ZM7.50454 17.1019H4.95592V11.7017L13.4339 11.7006C12.8849 15.1012 11.116 17.0055 7.50454 17.1019ZM13.6275 9.00074C13.6275 9.30862 13.6216 9.60842 13.6088 9.90069L4.95592 9.90177V8.10187L13.6088 8.1008C13.6206 8.39145 13.6275 8.69125 13.6275 9.00074Z" fill="black"/>
</g>
<defs>
<clipPath id="clip0_1_154">
<rect width="19" height="18" fill="white"/>
</clipPath>
</defs>
</svg>
