<svg width="108" height="49" viewBox="0 0 108 49" fill="none" xmlns="http://www.w3.org/2000/svg">
<g clip-path="url(#clip0_1_607)">
<path d="M82.209 21.8388V20.6414L84.5723 18.5021C84.72 18.3597 84.8403 18.2137 84.9315 18.0658C85.0227 17.918 85.0683 17.7518 85.0683 17.5693C85.0683 17.3521 84.999 17.1769 84.8622 17.0436C84.7254 16.9104 84.5431 16.8428 84.3133 16.8428C84.0726 16.8428 83.8775 16.9268 83.7261 17.0965C83.5748 17.2645 83.4854 17.4872 83.4563 17.761L82.0777 17.573C82.1123 17.2645 82.1962 16.9888 82.3311 16.7479C82.4661 16.5069 82.6357 16.3007 82.8399 16.1309C83.046 15.9612 83.2812 15.8316 83.5456 15.7421C83.8118 15.6527 84.0927 15.6089 84.3899 15.6089C84.6689 15.6089 84.9406 15.6454 85.2032 15.7202C85.4658 15.7951 85.6992 15.9082 85.9053 16.0634C86.1113 16.2185 86.2754 16.412 86.3976 16.6457C86.5198 16.8793 86.5818 17.155 86.5818 17.4689C86.5818 17.6861 86.5526 17.8814 86.4961 18.0567C86.4396 18.2319 86.3612 18.3925 86.2609 18.5404C86.1606 18.6883 86.0475 18.827 85.918 18.9566C85.7904 19.0844 85.6573 19.2121 85.5205 19.3381L84.1164 20.5903H86.5909V21.8425H82.2053L82.209 21.8388ZM91.5692 20.656V21.8388H90.2252V20.656H87.3732V19.4476L89.8405 15.7695H91.5619V19.4896H92.4007V20.656H91.5692ZM90.2343 17.2444H90.2088L88.77 19.4914H90.2343V17.2444Z" fill="#B18A09"/>
<path d="M105.661 11.038C104.642 8.7088 103.232 6.73011 101.432 5.09823C99.6326 3.46636 97.51 2.20869 95.0665 1.32521C92.6211 0.441737 89.9715 0 87.1195 0C84.2675 0 81.6197 0.441737 79.1743 1.32521C76.729 2.20869 74.6155 3.46636 72.8339 5.09823C71.0505 6.72828 69.65 8.7088 68.6325 11.038C68.5559 11.2114 68.4829 11.3884 68.4136 11.5673C68.2896 9.80767 67.8793 8.30539 67.1809 7.06232C66.3312 5.55092 65.2206 4.34436 63.8457 3.44263C62.4689 2.5409 60.908 1.91298 59.1592 1.55521C57.4104 1.19926 55.6525 1.02038 53.8892 1.02038H38.3545V10.578C37.3552 8.44777 36.0149 6.62059 34.3354 5.10006C32.5355 3.46819 30.4129 2.21051 27.9676 1.32704C25.5222 0.443563 22.8726 0.00182536 20.0224 0.00182536C17.1722 0.00182536 14.5208 0.443563 12.0773 1.32704C9.63192 2.21051 7.51844 3.46819 5.73502 5.10006C3.9516 6.73011 2.55113 8.71062 1.53359 11.0398C0.508767 13.3671 0 15.9756 0 18.8651C0 21.7547 0.508767 24.3887 1.52812 26.7671C2.54748 29.1474 3.94796 31.179 5.72955 32.8602C7.51297 34.5431 9.62645 35.8428 12.0718 36.761C14.5172 37.6791 17.165 38.1391 20.017 38.1391C22.869 38.1391 25.5186 37.6809 27.9621 36.761C30.4075 35.8428 32.5301 34.5431 34.3299 32.8602C36.0094 31.2903 37.3479 29.4157 38.349 27.238V37.1187H50.1144V24.2189H50.4719L57.3794 37.1187H71.3039L62.1534 22.4848C64.1849 21.5666 65.7421 20.267 66.8253 18.584C66.9256 18.427 67.0223 18.2682 67.1135 18.1058C67.1062 18.3558 67.1007 18.6096 67.1007 18.8633C67.1007 21.7528 67.6095 24.3868 68.6288 26.7653C69.6463 29.1455 71.0486 31.1772 72.8302 32.8583C74.6118 34.5413 76.7271 35.841 79.1707 36.7591C81.616 37.6773 84.2638 38.1373 87.1158 38.1373C89.9678 38.1373 92.6174 37.6791 95.0628 36.7591C97.5082 35.841 99.6289 34.5413 101.429 32.8583C103.229 31.1753 104.638 29.1437 105.658 26.7653C106.675 24.3868 107.184 21.7528 107.184 18.8633C107.184 15.9737 106.675 13.3653 105.658 11.0361L105.661 11.038ZM26.6127 22.1289C26.2571 23.1145 25.7556 23.9652 25.1101 24.6789C24.4664 25.3926 23.7096 25.9457 22.8453 26.3363C21.9791 26.7269 21.0363 26.9223 20.0188 26.9223C19.0013 26.9223 18.0494 26.7269 17.165 26.3363C16.2824 25.9457 15.5256 25.3926 14.8983 24.6789C14.271 23.9652 13.7786 23.1145 13.4212 22.1289C13.0656 21.1432 12.8869 20.0552 12.8869 18.8651C12.8869 17.675 13.0656 16.6473 13.4212 15.678C13.7786 14.7088 14.271 13.8928 14.8983 13.2302C15.5256 12.5676 16.2824 12.0492 17.165 11.6768C18.0475 11.3026 18.9994 11.1165 20.0188 11.1165C21.0381 11.1165 21.9791 11.3045 22.8453 11.6768C23.7096 12.051 24.4664 12.5694 25.1101 13.2302C25.7556 13.8947 26.2571 14.7088 26.6127 15.678C26.9701 16.6473 27.147 17.7097 27.147 18.8651C27.147 20.0206 26.9683 21.1413 26.6127 22.1289ZM56.154 14.811C55.8677 15.2016 55.5121 15.5083 55.0927 15.7291C54.6715 15.95 54.2174 16.0942 53.7287 16.1617C53.24 16.2311 52.7932 16.2621 52.3884 16.2621H50.0123V10.4502H52.8935C53.2637 10.4502 53.6685 10.4757 54.1062 10.5269C54.5438 10.578 54.9486 10.6984 55.3188 10.8846C55.689 11.0708 55.9935 11.3519 56.2288 11.7243C56.464 12.0985 56.5825 12.6096 56.5825 13.2539C56.5825 13.8983 56.4385 14.4204 56.1522 14.8092L56.154 14.811ZM93.7152 22.1289C93.3596 23.1145 92.8563 23.9652 92.2126 24.6789C91.5671 25.3926 90.8121 25.9457 89.946 26.3363C89.0816 26.7269 88.137 26.9223 87.1195 26.9223C86.1019 26.9223 85.1501 26.7269 84.2675 26.3363C83.383 25.9457 82.6281 25.3926 82.0008 24.6789C81.3717 23.9652 80.8793 23.1145 80.5237 22.1289C80.1682 21.1432 79.9894 20.0552 79.9894 18.8651C79.9894 17.675 80.1682 16.6473 80.5237 15.678C80.8793 14.7088 81.3717 13.8928 82.0008 13.2302C82.6281 12.5676 83.383 12.0492 84.2675 11.6768C85.1501 11.3026 86.1019 11.1165 87.1195 11.1165C88.137 11.1165 89.0816 11.3045 89.946 11.6768C90.8121 12.051 91.5671 12.5694 92.2126 13.2302C92.8563 13.8947 93.3596 14.7088 93.7152 15.678C94.0726 16.6473 94.2495 17.7097 94.2495 18.8651C94.2495 20.0206 94.0708 21.1413 93.7152 22.1289Z" fill="white"/>
<path d="M104.961 4.45753C103.734 4.45753 102.735 3.45723 102.735 2.22877C102.735 1.0003 103.734 0 104.961 0C106.188 0 107.188 1.0003 107.188 2.22877C107.188 3.45723 106.188 4.45753 104.961 4.45753ZM104.961 0.306661C103.902 0.306661 103.041 1.16823 103.041 2.22877C103.041 3.2893 103.902 4.15087 104.961 4.15087C106.021 4.15087 106.881 3.2893 106.881 2.22877C106.881 1.16823 106.021 0.306661 104.961 0.306661Z" fill="white"/>
<path d="M104.153 1.08052H105.13C105.402 1.08052 105.613 1.15718 105.754 1.29774C105.872 1.41639 105.938 1.58614 105.938 1.78693V1.79241C105.938 2.1374 105.752 2.35462 105.48 2.45684L106.004 3.22167H105.453L104.995 2.53716H104.625V3.22167H104.155V1.08052H104.153ZM105.101 2.12097C105.331 2.12097 105.462 1.99868 105.462 1.81796V1.81249C105.462 1.60987 105.322 1.50583 105.092 1.50583H104.625V2.12097H105.103H105.101Z" fill="white"/>
<path d="M100.933 44.1605C100.847 44.0482 100.724 43.9553 100.565 43.8819C100.41 43.8041 100.253 43.7653 100.094 43.7653C99.9999 43.7653 99.9053 43.7782 99.8107 43.8041C99.7162 43.8257 99.6302 43.8625 99.5528 43.9143C99.4755 43.9618 99.411 44.0266 99.3594 44.1087C99.3121 44.1864 99.2885 44.2814 99.2885 44.3938C99.2885 44.4974 99.31 44.586 99.353 44.6594C99.396 44.7328 99.454 44.7955 99.5271 44.8473C99.6044 44.8991 99.6968 44.9445 99.8043 44.9834C99.9117 45.0223 100.03 45.0611 100.159 45.1C100.305 45.1475 100.455 45.2015 100.61 45.262C100.769 45.3225 100.913 45.4024 101.042 45.5017C101.175 45.6011 101.283 45.7263 101.365 45.8775C101.451 46.0287 101.494 46.2166 101.494 46.4412C101.494 46.6874 101.448 46.9034 101.358 47.0892C101.268 47.2706 101.147 47.4218 100.997 47.5427C100.847 47.6637 100.67 47.7544 100.468 47.8148C100.266 47.8753 100.054 47.9056 99.8301 47.9056C99.5335 47.9056 99.2434 47.8516 98.9597 47.7436C98.676 47.6313 98.4439 47.4671 98.2634 47.2511L98.8436 46.7069C98.9554 46.8624 99.1037 46.9855 99.2885 47.0762C99.4776 47.1669 99.6625 47.2123 99.843 47.2123C99.9375 47.2123 100.034 47.2015 100.133 47.1799C100.232 47.154 100.32 47.1129 100.397 47.0568C100.479 47.0006 100.544 46.9315 100.591 46.8494C100.642 46.763 100.668 46.6572 100.668 46.5319C100.668 46.411 100.64 46.3116 100.584 46.2339C100.529 46.1518 100.453 46.0827 100.359 46.0266C100.264 45.9661 100.152 45.9142 100.024 45.871C99.8946 45.8279 99.7592 45.7825 99.6173 45.735C99.4798 45.6918 99.3422 45.6399 99.2047 45.5795C99.0671 45.519 98.9425 45.4391 98.8307 45.3397C98.7233 45.2404 98.6352 45.1194 98.5664 44.9769C98.4976 44.83 98.4632 44.6486 98.4632 44.4326C98.4632 44.1994 98.5105 43.9985 98.6051 43.8301C98.7039 43.6616 98.8307 43.5234 98.9855 43.4154C99.1445 43.3031 99.3229 43.221 99.5206 43.1692C99.7226 43.113 99.9268 43.0849 100.133 43.0849C100.365 43.0849 100.599 43.126 100.836 43.208C101.077 43.2901 101.285 43.4132 101.461 43.5774L100.933 44.1605Z" fill="white"/>
<path d="M87.5758 43.1961H90.5996V43.9088H88.3882V45.0751H90.4836V45.7619H88.3882V47.0578H90.7157V47.7834H87.5758V43.1961Z" fill="white"/>
<path d="M78.6639 43.1961H79.4763V47.7834H78.6639V43.1961Z" fill="white"/>
<path d="M68.8314 43.9088H67.4323V43.1961H71.0428V43.9088H69.6437V47.7834H68.8314V43.9088Z" fill="white"/>
<path d="M58.9971 43.1961H59.8095V47.7834H58.9971V43.1961Z" fill="white"/>
<path d="M48.6091 43.1961H49.4214V47.0578H51.3621V47.7834H48.6091V43.1961Z" fill="white"/>
<path d="M39.6971 43.1961H40.5095V47.7834H39.6971V43.1961Z" fill="white"/>
<path d="M31.4109 44.2771C31.2906 44.113 31.1337 43.9942 30.9403 43.9208C30.7468 43.843 30.5577 43.8041 30.3729 43.8041C30.1365 43.8041 29.9216 43.8473 29.7282 43.9337C29.5347 44.0201 29.3671 44.1389 29.2253 44.2901C29.0877 44.4413 28.9803 44.6184 28.9029 44.8214C28.8298 45.0244 28.7933 45.2447 28.7933 45.4823C28.7933 45.7328 28.8298 45.9618 28.9029 46.1691C28.976 46.3764 29.0791 46.5557 29.2124 46.7069C29.3499 46.8537 29.5133 46.9682 29.7024 47.0503C29.8915 47.1324 30.1043 47.1734 30.3407 47.1734C30.5857 47.1734 30.8027 47.1259 30.9918 47.0308C31.181 46.9315 31.3336 46.8019 31.4496 46.6421L32.1008 47.1021C31.8988 47.357 31.6516 47.5557 31.3593 47.6982C31.0671 47.8364 30.7254 47.9056 30.3342 47.9056C29.9775 47.9056 29.6486 47.8472 29.3478 47.7306C29.0512 47.6097 28.7954 47.4434 28.5805 47.2317C28.3656 47.0157 28.198 46.7609 28.0776 46.4671C27.9573 46.1691 27.8971 45.8408 27.8971 45.4823C27.8971 45.1151 27.9594 44.7847 28.0841 44.4909C28.213 44.1929 28.3871 43.9402 28.6063 43.7329C28.8298 43.5255 29.092 43.3657 29.3929 43.2534C29.6938 43.1411 30.0204 43.0849 30.3729 43.0849C30.519 43.0849 30.6716 43.1 30.8307 43.1303C30.9897 43.1562 31.1423 43.1994 31.2884 43.2599C31.4346 43.316 31.5721 43.3873 31.7011 43.4737C31.83 43.5601 31.9396 43.6638 32.0299 43.7847L31.4109 44.2771Z" fill="white"/>
<path d="M18.0187 43.1961H18.7215L20.6879 47.7834H19.7595L19.334 46.7338H17.3546L16.942 47.7834H16.0329L18.0187 43.1961ZM19.0503 46.034L18.3475 44.168L17.6318 46.034H19.0503Z" fill="white"/>
<path d="M6.14604 43.1961H9.09249V43.9088H6.95841V45.1658H8.96999V45.8526H6.95841V47.7834H6.14604V43.1961Z" fill="white"/>
</g>
<defs>
<clipPath id="clip0_1_607">
<rect width="107.188" height="49" fill="white"/>
</clipPath>
</defs>
</svg>
